<?xml version="1.0" encoding="UTF-8" standalone="no"?>
<!-- Created with Inkscape (http://www.inkscape.org/) -->

<svg
   xmlns:dc="http://purl.org/dc/elements/1.1/"
   xmlns:cc="http://creativecommons.org/ns#"
   xmlns:rdf="http://www.w3.org/1999/02/22-rdf-syntax-ns#"
   xmlns:svg="http://www.w3.org/2000/svg"
   xmlns="http://www.w3.org/2000/svg"
   xmlns:sodipodi="http://sodipodi.sourceforge.net/DTD/sodipodi-0.dtd"
   xmlns:inkscape="http://www.inkscape.org/namespaces/inkscape"
   width="84.99807"
   height="96.001884"
   id="svg2"
   version="1.1"
   inkscape:version="0.47 r22583"
   sodipodi:docname="translated.svg">
  <defs
     id="defs4">
    <inkscape:perspective
       sodipodi:type="inkscape:persp3d"
       inkscape:vp_x="0 : 526.18109 : 1"
       inkscape:vp_y="0 : 1000 : 0"
       inkscape:vp_z="744.09448 : 526.18109 : 1"
       inkscape:persp3d-origin="372.04724 : 350.78739 : 1"
       id="perspective10" />
    <inkscape:perspective
       id="perspective2884"
       inkscape:persp3d-origin="0.5 : 0.33333333 : 1"
       inkscape:vp_z="1 : 0.5 : 1"
       inkscape:vp_y="0 : 1000 : 0"
       inkscape:vp_x="0 : 0.5 : 1"
       sodipodi:type="inkscape:persp3d" />
    <inkscape:perspective
       id="perspective2998"
       inkscape:persp3d-origin="0.5 : 0.33333333 : 1"
       inkscape:vp_z="1 : 0.5 : 1"
       inkscape:vp_y="0 : 1000 : 0"
       inkscape:vp_x="0 : 0.5 : 1"
       sodipodi:type="inkscape:persp3d" />
  </defs>
  <sodipodi:namedview
     id="base"
     pagecolor="#ffffff"
     bordercolor="#666666"
     borderopacity="1.0"
     inkscape:pageopacity="0.0"
     inkscape:pageshadow="2"
     inkscape:zoom="3.9724112"
     inkscape:cx="19.391954"
     inkscape:cy="66.404917"
     inkscape:document-units="px"
     inkscape:current-layer="layer1"
     showgrid="false"
     inkscape:window-width="1280"
     inkscape:window-height="975"
     inkscape:window-x="0"
     inkscape:window-y="0"
     inkscape:window-maximized="1" />
  <metadata
     id="metadata7">
    <rdf:RDF>
      <cc:Work
         rdf:about="">
        <dc:format>image/svg+xml</dc:format>
        <dc:type
           rdf:resource="http://purl.org/dc/dcmitype/StillImage" />
        <dc:title></dc:title>
      </cc:Work>
    </rdf:RDF>
  </metadata>
  <g
     inkscape:label="Camada 1"
     inkscape:groupmode="layer"
     id="layer1"
     transform="translate(-203.73971,-241.18895)">
    <g
       id="g3621"
       inkscape:export-xdpi="60.354309"
       inkscape:export-ydpi="60.354309"
       inkscape:export-filename="/home/caiosba/Trabalhos/Meedan/meedan-translatedesk/app/assets/images/translated.png">
      <path
         inkscape:export-ydpi="94.237442"
         inkscape:export-xdpi="94.237442"
         inkscape:export-filename="/home/caiosba/Trabalhos/Meedan/meedan-translatedesk/app/assets/images/translated.png"
         id="path2890"
         d="m 272.37374,242.91389 c 0.49223,1.01668 0.13643,2.38196 -0.90279,3.46415 -0.61202,0.63732 -1.19194,0.83979 -3.60819,1.2597 -6.75351,1.17367 -13.14656,4.60158 -21.60732,11.58572 -5.55042,4.58172 -8.95124,8.41168 -10.8789,12.25167 -1.13397,2.25897 -2.25622,6.83841 -2.16471,8.83343 0.19619,4.27782 3.11822,8.81327 8.08349,12.54691 1.59147,1.19671 8.17014,5.3255 8.34026,5.23438 0.0484,-0.026 0.21832,-3.44729 0.37745,-7.60298 0.21897,-5.71842 0.38473,-7.68619 0.68168,-8.09204 0.56355,-0.77024 1.65328,-0.94484 2.64824,-0.42429 0.68092,0.35623 1.21544,1.22287 3.16171,5.12623 2.6813,5.37747 6.29351,10.85565 11.08903,16.81731 2.74433,3.41169 3.58503,4.26123 7.27486,7.35137 2.29458,1.92164 5.06213,4.27224 6.15014,5.22357 1.088,0.95131 3.20776,2.56139 4.71059,3.57799 1.51342,1.02375 2.81112,2.07328 2.90886,2.35256 0.4805,1.37292 -0.85794,2.72607 -2.27812,2.30314 -1.27699,-0.38028 -5.13665,-0.59872 -8.58506,-0.48587 -9.52592,0.31173 -20.99829,3.06996 -30.99261,7.45136 -3.10385,1.3607 -7.01537,3.5173 -8.54168,4.70942 -1.14046,0.89078 -1.71621,0.99949 -2.56925,0.48515 -0.55155,-0.33257 -0.55164,-0.39015 -0.003,-1.67667 0.31258,-0.73274 2.26476,-4.1886 4.33819,-7.67969 2.07341,-3.49109 3.79897,-6.44361 3.83459,-6.56117 0.0356,-0.11755 -0.74737,-0.46151 -1.73998,-0.76433 -2.57032,-0.78416 -8.96608,-3.44741 -12.04849,-5.01709 -16.94712,-8.6301 -26.71377,-20.97585 -26.30041,-33.24561 0.0923,-2.73681 1.62466,-8.04504 3.03918,-10.52731 2.767,-4.85566 7.19933,-9.54959 13.89842,-14.71873 5.99887,-4.62883 15.22483,-9.5556 22.7473,-12.14736 7.55614,-2.60335 17.26993,-3.86256 24.42591,-3.16634 3.46242,0.33685 4.02243,0.52748 4.51044,1.53542 z m -21.14415,3.94985 c -2.80453,0.48019 -7.43797,1.74626 -10.09931,2.75962 -4.69797,1.78883 -11.41952,5.55262 -16.17474,9.05719 -12.44814,9.17422 -18.19106,17.29523 -18.07983,25.56655 0.0902,6.70477 4.835,14.08815 13.5545,21.09195 6.94361,5.57734 14.49489,9.8016 22.71522,12.70708 1.89736,0.67063 3.60999,1.37507 3.80583,1.5654 0.19585,0.19034 0.27793,0.60404 0.18241,0.91935 -0.0955,0.3153 -1.59451,2.98726 -3.33107,5.9377 l -3.15736,5.36441 2.86105,-1.26674 c 4.20264,-1.86073 13.71705,-5.0694 18.96829,-6.3969 5.34605,-1.35146 12.92573,-2.65177 16.54827,-2.83885 l 2.53973,-0.13116 -0.73423,-0.61198 c -10.23616,-8.53186 -12.31406,-10.51217 -16.75732,-15.97028 -2.31867,-2.84823 -7.85092,-10.43662 -8.75778,-12.01273 l -0.83464,-1.45059 -0.0658,2.3171 c -0.0361,1.2744 -0.0998,3.61507 -0.14125,5.20147 -0.0415,1.58639 -0.16706,3.18891 -0.27898,3.56115 -0.24278,0.80741 -1.41823,1.50471 -2.45049,1.45366 -0.81964,-0.0406 -4.0387,-1.58787 -8.60063,-4.13411 -8.9206,-4.97908 -12.93667,-9.67062 -14.11203,-16.48558 -0.45308,-2.62703 -0.28934,-4.60307 0.70126,-8.46249 1.58784,-6.18629 4.10602,-10.53159 9.17621,-15.83427 4.51209,-4.71899 7.54063,-7.07653 13.8394,-10.77312 3.23227,-1.89696 3.21702,-1.9101 -1.31673,-1.13383 z"
         style="fill:#d3d7cf" />
      <path
         inkscape:export-ydpi="94.237442"
         inkscape:export-xdpi="94.237442"
         inkscape:export-filename="/home/caiosba/Trabalhos/Meedan/meedan-translatedesk/app/assets/images/translated.png"
         id="path2892"
         d="m 241.21724,331.17683 c 2.40787,-4.04884 6.03198,-10.70141 6.03198,-11.07258 0,-0.58455 -0.13522,-0.651 -5.96317,-2.93002 -7.14478,-2.79396 -12.85744,-5.96404 -18.8722,-10.47259 -3.20439,-2.40196 -8.96438,-7.97921 -10.66083,-10.32258 -5.57103,-7.69564 -6.18114,-14.81722 -1.89753,-22.14938 5.64652,-9.66499 21.12083,-21.22809 33.8412,-25.28767 3.89327,-1.2425 10.65758,-2.72359 10.65758,-2.33355 0,0.0729 -1.57008,1.10941 -3.48908,2.30329 -1.91901,1.19389 -4.17422,2.67768 -5.0116,3.29729 -4.03928,2.98884 -8.87749,7.89435 -11.60583,11.76726 -3.92702,5.57442 -6.3891,13.9563 -5.53881,18.85614 1.38034,7.95408 6.07228,12.78056 18.58325,19.11606 3.92301,1.98659 5.08794,2.19241 6.18417,1.09257 0.63651,-0.63862 0.66335,-0.79663 0.88651,-5.22005 0.12657,-2.50884 0.23351,-4.89732 0.23764,-5.30774 0.006,-0.64513 0.2928,-0.33384 2.11291,2.29735 7.34576,10.61909 11.82487,15.60672 20.67424,23.02135 l 3.79883,3.18292 -2.06072,0.18367 c -5.72753,0.51048 -13.27472,1.91208 -18.92597,3.51478 -4.79969,1.36119 -12.18166,3.8729 -15.46237,5.26104 -3.11309,1.3172 -3.70964,1.52099 -3.5202,1.20244 l 0,0 z"
         style="fill:#d3d7cf;fill-opacity:0.99607843;fill-rule:nonzero;stroke:#d3d7cf;stroke-width:2;stroke-linecap:round;stroke-linejoin:round;stroke-miterlimit:4;stroke-opacity:1;stroke-dasharray:none;stroke-dashoffset:0" />
    </g>
  </g>
</svg>
