<?xml version="1.0" encoding="UTF-8" standalone="no"?>
<!-- Generated by graphviz version 2.26.3 (20100126.1600)
 -->

<!-- Title: controllers_diagram Pages: 1 -->

<svg
   xmlns:dc="http://purl.org/dc/elements/1.1/"
   xmlns:cc="http://creativecommons.org/ns#"
   xmlns:rdf="http://www.w3.org/1999/02/22-rdf-syntax-ns#"
   xmlns:svg="http://www.w3.org/2000/svg"
   xmlns="http://www.w3.org/2000/svg"
   xmlns:sodipodi="http://sodipodi.sourceforge.net/DTD/sodipodi-0.dtd"
   xmlns:inkscape="http://www.inkscape.org/namespaces/inkscape"
   width="930pt"
   height="344pt"
   viewBox="0.00 0.00 930.00 344.03"
   id="svg2"
   version="1.1"
   inkscape:version="0.47 r22583"
   sodipodi:docname="controllers_brief.svg"
   inkscape:export-filename="/home/caiosba/Trabalhos/Meedan/meedan-translatedesk/doc/controllers_brief.png"
   inkscape:export-xdpi="90"
   inkscape:export-ydpi="90">
  <metadata
     id="metadata88">
    <rdf:RDF>
      <cc:Work
         rdf:about="">
        <dc:format>image/svg+xml</dc:format>
        <dc:type
           rdf:resource="http://purl.org/dc/dcmitype/StillImage" />
        <dc:title></dc:title>
      </cc:Work>
    </rdf:RDF>
  </metadata>
  <defs
     id="defs86">
    <inkscape:perspective
       sodipodi:type="inkscape:persp3d"
       inkscape:vp_x="0 : 215 : 1"
       inkscape:vp_y="0 : 1000 : 0"
       inkscape:vp_z="1162.5 : 215 : 1"
       inkscape:persp3d-origin="581.25 : 143.33333 : 1"
       id="perspective90" />
  </defs>
  <sodipodi:namedview
     pagecolor="#ffffff"
     bordercolor="#666666"
     borderopacity="1"
     objecttolerance="10"
     gridtolerance="10"
     guidetolerance="10"
     inkscape:pageopacity="0"
     inkscape:pageshadow="2"
     inkscape:window-width="1024"
     inkscape:window-height="551"
     id="namedview84"
     showgrid="false"
     inkscape:zoom="0.46193548"
     inkscape:cx="581.25"
     inkscape:cy="210.67039"
     inkscape:window-x="0"
     inkscape:window-y="0"
     inkscape:window-maximized="1"
     inkscape:current-layer="svg2" />
  <g
     id="graph1"
     class="graph"
     transform="scale(1 1) rotate(0) translate(4 340.033)">
    <title
       id="title5">controllers_diagram</title>
    <polygon
       fill="white"
       stroke="white"
       points="-4,5 -4,-340.033 927,-340.033 927,5 -4,5"
       id="polygon7" />
    <!-- _diagram_info -->
    <g
       id="node1"
       class="node">
      <title
         id="title10">_diagram_info</title>
      <text
         text-anchor="start"
         x="585"
         y="-78.3"
         font-family="Times Roman,serif"
         font-size="13.00"
         id="text12">Controllers diagram</text>
      <text
         text-anchor="start"
         x="585"
         y="-61.3"
         font-family="Times Roman,serif"
         font-size="13.00"
         id="text14">Date: Aug 17 2013 - 20:02</text>
      <text
         text-anchor="start"
         x="585"
         y="-44.3"
         font-family="Times Roman,serif"
         font-size="13.00"
         id="text16">Migration version: 20130813011044</text>
      <text
         text-anchor="start"
         x="585"
         y="-27.3"
         font-family="Times Roman,serif"
         font-size="13.00"
         id="text18">Generated by RailRoady 1.1.0</text>
      <text
         text-anchor="start"
         x="585"
         y="-10.3"
         font-family="Times Roman,serif"
         font-size="13.00"
         id="text20">http://railroady.prestonlee.com</text>
    </g>
    <!-- TweetDraftsController -->
    <g
       id="node2"
       class="node">
      <title
         id="title23">TweetDraftsController</title>
      <ellipse
         fill="none"
         stroke="black"
         cx="121"
         cy="-165.79"
         rx="120.208"
         ry="18.3848"
         id="ellipse25"
         d="m 241.208,-165.78999 c 0,10.15364 -53.81895,18.3848 -120.208,18.3848 -66.389045,0 -120.20800018,-8.23116 -120.20800018,-18.3848 0,-10.15365 53.81895518,-18.3848 120.20800018,-18.3848 66.38905,0 120.208,8.23115 120.208,18.3848 z" />
      <text
         text-anchor="middle"
         x="121"
         y="-162.19"
         font-family="Times Roman,serif"
         font-size="14.00"
         id="text27">TweetDraftsController</text>
    </g>
    <!-- OmniauthCallbacksController -->
    <g
       id="node3"
       class="node">
      <title
         id="title30">OmniauthCallbacksController</title>
      <ellipse
         fill="none"
         stroke="black"
         cx="767"
         cy="-271.5"
         rx="154.149"
         ry="18.3848"
         id="ellipse32"
         d="m 921.149,-271.5 c 0,10.15364 -69.01486,18.3848 -154.149,18.3848 -85.13414,0 -154.149,-8.23116 -154.149,-18.3848 0,-10.15364 69.01486,-18.3848 154.149,-18.3848 85.13414,0 154.149,8.23116 154.149,18.3848 z" />
      <text
         text-anchor="middle"
         x="767"
         y="-267.9"
         font-family="Times Roman,serif"
         font-size="14.00"
         id="text34">OmniauthCallbacksController</text>
    </g>
    <!-- HomeController -->
    <g
       id="node4"
       class="node">
      <title
         id="title37">HomeController</title>
      <ellipse
         fill="none"
         stroke="black"
         cx="674.627"
         cy="-171.547"
         rx="87.889"
         ry="18.3848"
         id="ellipse39"
         d="m 762.51601,-171.547 c 0,10.15365 -39.34924,18.3848 -87.889,18.3848 -48.53975,0 -87.889,-8.23115 -87.889,-18.3848 0,-10.15364 39.34925,-18.3848 87.889,-18.3848 48.53976,0 87.889,8.23116 87.889,18.3848 z" />
      <text
         text-anchor="middle"
         x="674.627"
         y="-167.947"
         font-family="Times Roman,serif"
         font-size="14.00"
         id="text41">HomeController</text>
    </g>
    <!-- TweetsController -->
    <g
       id="node5"
       class="node">
      <title
         id="title44">TweetsController</title>
      <ellipse
         fill="none"
         stroke="black"
         cx="416.897"
         cy="-19.5"
         rx="94.7523"
         ry="18.3848"
         id="ellipse46"
         d="m 511.6493,-19.5 c 0,10.1536446 -42.42205,18.3848 -94.7523,18.3848 -52.33025,0 -94.75229,-8.2311554 -94.75229,-18.3848 0,-10.153645 42.42204,-18.3848 94.75229,-18.3848 52.33025,0 94.7523,8.231155 94.7523,18.3848 z" />
      <text
         text-anchor="middle"
         x="416.897"
         y="-15.9"
         font-family="Times Roman,serif"
         font-size="14.00"
         id="text48">TweetsController</text>
    </g>
    <!-- MachineTranslationsController -->
    <g
       id="node6"
       class="node">
      <title
         id="title51">MachineTranslationsController</title>
      <ellipse
         fill="none"
         stroke="black"
         cx="399.218"
         cy="-316.533"
         rx="159.099"
         ry="18.3848"
         id="ellipse53"
         d="m 558.31699,-316.53299 c 0,10.15365 -71.23105,18.3848 -159.099,18.3848 -87.86795,0 -159.099,-8.23115 -159.099,-18.3848 0,-10.15364 71.23105,-18.3848 159.099,-18.3848 87.86795,0 159.099,8.23116 159.099,18.3848 z" />
      <text
         text-anchor="middle"
         x="399.218"
         y="-312.933"
         font-family="Times Roman,serif"
         font-size="14.00"
         id="text55">MachineTranslationsController</text>
    </g>
    <!-- ApplicationController -->
    <g
       id="node7"
       class="node">
      <title
         id="title58">ApplicationController</title>
      <ellipse
         fill="none"
         stroke="black"
         cx="378.652"
         cy="-165.295"
         rx="113.844"
         ry="18.3848"
         id="ellipse60"
         d="m 492.49601,-165.295 c 0,10.15365 -50.9697,18.3848 -113.844,18.3848 -62.87431,0 -113.844,-8.23115 -113.844,-18.3848 0,-10.15364 50.96969,-18.3848 113.844,-18.3848 62.8743,0 113.844,8.23116 113.844,18.3848 z" />
      <text
         text-anchor="middle"
         x="378.652"
         y="-161.695"
         font-family="Times Roman,serif"
         font-size="14.00"
         id="text62">ApplicationController</text>
    </g>
    <!-- ApplicationController&#45;&gt;TweetDraftsController -->
    <g
       id="edge2"
       class="edge">
      <title
         id="title65">ApplicationController-&gt;TweetDraftsController</title>
      <path
         fill="none"
         stroke="black"
         d="M264.517,-165.514C256.71,-165.529 248.83,-165.544 240.994,-165.559"
         id="path67" />
    </g>
    <!-- ApplicationController&#45;&gt;HomeController -->
    <g
       id="edge4"
       class="edge">
      <title
         id="title70">ApplicationController-&gt;HomeController</title>
      <path
         fill="none"
         stroke="black"
         d="M491.814,-167.686C523.311,-168.351 557.038,-169.063 586.84,-169.693"
         id="path72" />
    </g>
    <!-- ApplicationController&#45;&gt;TweetsController -->
    <g
       id="edge6"
       class="edge">
      <title
         id="title75">ApplicationController-&gt;TweetsController</title>
      <path
         fill="none"
         stroke="black"
         d="M383.573,-146.533C390.917,-118.539 404.662,-66.1423 411.994,-38.1897"
         id="path77" />
    </g>
    <!-- ApplicationController&#45;&gt;MachineTranslationsController -->
    <g
       id="edge8"
       class="edge">
      <title
         id="title80">ApplicationController-&gt;MachineTranslationsController</title>
      <path
         fill="none"
         stroke="black"
         d="M381.173,-183.84C385.121,-212.866 392.715,-268.717 396.675,-297.836"
         id="path82" />
    </g>
  </g>
</svg>
