<?xml version="1.0" encoding="UTF-8" standalone="no"?>
<!DOCTYPE svg PUBLIC "-//W3C//DTD SVG 1.1//EN"
 "http://www.w3.org/Graphics/SVG/1.1/DTD/svg11.dtd">
<!-- Generated by graphviz version 2.26.3 (20100126.1600)
 -->
<!-- Title: controllers_diagram Pages: 1 -->
<svg width="845pt" height="610pt"
 viewBox="0.00 0.00 845.00 610.00" xmlns="http://www.w3.org/2000/svg" xmlns:xlink="http://www.w3.org/1999/xlink">
<g id="graph1" class="graph" transform="scale(1 1) rotate(0) translate(4 606)">
<title>controllers_diagram</title>
<polygon fill="white" stroke="white" points="-4,5 -4,-606 842,-606 842,5 -4,5"/>
<!-- _diagram_info -->
<g id="node1" class="node"><title>_diagram_info</title>
<text text-anchor="start" x="594" y="-585.3" font-family="Times Roman,serif" font-size="13.00">Controllers diagram</text>
<text text-anchor="start" x="594" y="-568.3" font-family="Times Roman,serif" font-size="13.00">Date: Aug 17 2013 &#45; 20:01</text>
<text text-anchor="start" x="594" y="-551.3" font-family="Times Roman,serif" font-size="13.00">Migration version: 20130813011044</text>
<text text-anchor="start" x="594" y="-534.3" font-family="Times Roman,serif" font-size="13.00">Generated by RailRoady 1.1.0</text>
<text text-anchor="start" x="594" y="-517.3" font-family="Times Roman,serif" font-size="13.00">http://railroady.prestonlee.com</text>
</g>
<!-- TweetDraftsController -->
<g id="node2" class="node"><title>TweetDraftsController</title>
<polyline fill="none" stroke="black" points="37.3564,-61.3015 183.356,-61.3015 "/>
<path fill="none" stroke="black" d="M183.356,-61.3015C189.356,-61.3015 195.356,-67.3015 195.356,-73.3015"/>
<polyline fill="none" stroke="black" points="195.356,-73.3015 195.356,-169.302 "/>
<path fill="none" stroke="black" d="M195.356,-169.302C195.356,-175.302 189.356,-181.302 183.356,-181.302"/>
<polyline fill="none" stroke="black" points="183.356,-181.302 37.3564,-181.302 "/>
<path fill="none" stroke="black" d="M37.3564,-181.302C31.3564,-181.302 25.3564,-175.302 25.3564,-169.302"/>
<polyline fill="none" stroke="black" points="25.3564,-169.302 25.3564,-73.3015 "/>
<path fill="none" stroke="black" d="M25.3564,-73.3015C25.3564,-67.3015 31.3564,-61.3015 37.3564,-61.3015"/>
<text text-anchor="middle" x="110.356" y="-164.702" font-family="Times Roman,serif" font-size="14.00">TweetDraftsController</text>
<polyline fill="none" stroke="black" points="25.3564,-155.302 195.356,-155.302 "/>
<text text-anchor="start" x="33.3564" y="-138.702" font-family="Times Roman,serif" font-size="14.00">create</text>
<text text-anchor="start" x="33.3564" y="-120.702" font-family="Times Roman,serif" font-size="14.00">show</text>
<polyline fill="none" stroke="black" points="25.3564,-111.302 195.356,-111.302 "/>
<polyline fill="none" stroke="black" points="25.3564,-87.3015 195.356,-87.3015 "/>
<text text-anchor="start" x="33.3564" y="-70.7015" font-family="Times Roman,serif" font-size="14.00">_layout</text>
</g>
<!-- OmniauthCallbacksController -->
<g id="node3" class="node"><title>OmniauthCallbacksController</title>
<polyline fill="none" stroke="black" points="598,-313.5 792,-313.5 "/>
<path fill="none" stroke="black" d="M792,-313.5C798,-313.5 804,-319.5 804,-325.5"/>
<polyline fill="none" stroke="black" points="804,-325.5 804,-421.5 "/>
<path fill="none" stroke="black" d="M804,-421.5C804,-427.5 798,-433.5 792,-433.5"/>
<polyline fill="none" stroke="black" points="792,-433.5 598,-433.5 "/>
<path fill="none" stroke="black" d="M598,-433.5C592,-433.5 586,-427.5 586,-421.5"/>
<polyline fill="none" stroke="black" points="586,-421.5 586,-325.5 "/>
<path fill="none" stroke="black" d="M586,-325.5C586,-319.5 592,-313.5 598,-313.5"/>
<text text-anchor="middle" x="695" y="-416.9" font-family="Times Roman,serif" font-size="14.00">OmniauthCallbacksController</text>
<polyline fill="none" stroke="black" points="586,-407.5 804,-407.5 "/>
<text text-anchor="start" x="594" y="-390.9" font-family="Times Roman,serif" font-size="14.00">all</text>
<text text-anchor="start" x="594" y="-372.9" font-family="Times Roman,serif" font-size="14.00">twitter</text>
<polyline fill="none" stroke="black" points="586,-363.5 804,-363.5 "/>
<polyline fill="none" stroke="black" points="586,-339.5 804,-339.5 "/>
<text text-anchor="start" x="594" y="-322.9" font-family="Times Roman,serif" font-size="14.00">_layout</text>
</g>
<!-- HomeController -->
<g id="node4" class="node"><title>HomeController</title>
<polyline fill="none" stroke="black" points="396.612,-432.983 497.612,-432.983 "/>
<path fill="none" stroke="black" d="M497.612,-432.983C503.612,-432.983 509.612,-438.983 509.612,-444.983"/>
<polyline fill="none" stroke="black" points="509.612,-444.983 509.612,-522.983 "/>
<path fill="none" stroke="black" d="M509.612,-522.983C509.612,-528.983 503.612,-534.983 497.612,-534.983"/>
<polyline fill="none" stroke="black" points="497.612,-534.983 396.612,-534.983 "/>
<path fill="none" stroke="black" d="M396.612,-534.983C390.612,-534.983 384.612,-528.983 384.612,-522.983"/>
<polyline fill="none" stroke="black" points="384.612,-522.983 384.612,-444.983 "/>
<path fill="none" stroke="black" d="M384.612,-444.983C384.612,-438.983 390.612,-432.983 396.612,-432.983"/>
<text text-anchor="middle" x="447.112" y="-518.383" font-family="Times Roman,serif" font-size="14.00">HomeController</text>
<polyline fill="none" stroke="black" points="384.612,-508.983 509.612,-508.983 "/>
<text text-anchor="start" x="392.612" y="-492.383" font-family="Times Roman,serif" font-size="14.00">index</text>
<polyline fill="none" stroke="black" points="384.612,-482.983 509.612,-482.983 "/>
<polyline fill="none" stroke="black" points="384.612,-458.983 509.612,-458.983 "/>
<text text-anchor="start" x="392.612" y="-442.383" font-family="Times Roman,serif" font-size="14.00">_layout</text>
</g>
<!-- TweetsController -->
<g id="node5" class="node"><title>TweetsController</title>
<polyline fill="none" stroke="black" points="332.067,-1.5 555.067,-1.5 "/>
<path fill="none" stroke="black" d="M555.067,-1.5C561.067,-1.5 567.067,-7.5 567.067,-13.5"/>
<polyline fill="none" stroke="black" points="567.067,-13.5 567.067,-219.5 "/>
<path fill="none" stroke="black" d="M567.067,-219.5C567.067,-225.5 561.067,-231.5 555.067,-231.5"/>
<polyline fill="none" stroke="black" points="555.067,-231.5 332.067,-231.5 "/>
<path fill="none" stroke="black" d="M332.067,-231.5C326.067,-231.5 320.067,-225.5 320.067,-219.5"/>
<polyline fill="none" stroke="black" points="320.067,-219.5 320.067,-13.5 "/>
<path fill="none" stroke="black" d="M320.067,-13.5C320.067,-7.5 326.067,-1.5 332.067,-1.5"/>
<text text-anchor="middle" x="443.567" y="-214.9" font-family="Times Roman,serif" font-size="14.00">TweetsController</text>
<polyline fill="none" stroke="black" points="320.067,-205.5 567.067,-205.5 "/>
<text text-anchor="start" x="328.067" y="-188.9" font-family="Times Roman,serif" font-size="14.00">_one_time_conditions_valid_103?</text>
<text text-anchor="start" x="328.067" y="-170.9" font-family="Times Roman,serif" font-size="14.00">_one_time_conditions_valid_108?</text>
<text text-anchor="start" x="328.067" y="-152.9" font-family="Times Roman,serif" font-size="14.00">conversation</text>
<text text-anchor="start" x="328.067" y="-134.9" font-family="Times Roman,serif" font-size="14.00">create</text>
<text text-anchor="start" x="328.067" y="-116.9" font-family="Times Roman,serif" font-size="14.00">fetch</text>
<text text-anchor="start" x="328.067" y="-98.9" font-family="Times Roman,serif" font-size="14.00">preview</text>
<text text-anchor="start" x="328.067" y="-80.9" font-family="Times Roman,serif" font-size="14.00">show</text>
<text text-anchor="start" x="328.067" y="-62.9" font-family="Times Roman,serif" font-size="14.00">translations</text>
<polyline fill="none" stroke="black" points="320.067,-53.5 567.067,-53.5 "/>
<text text-anchor="start" x="328.067" y="-36.9" font-family="Times Roman,serif" font-size="14.00">check_twitter_user</text>
<polyline fill="none" stroke="black" points="320.067,-27.5 567.067,-27.5 "/>
<text text-anchor="start" x="328.067" y="-10.9" font-family="Times Roman,serif" font-size="14.00">_layout</text>
</g>
<!-- MachineTranslationsController -->
<g id="node6" class="node"><title>MachineTranslationsController</title>
<polyline fill="none" stroke="black" points="13,-425.912 214,-425.912 "/>
<path fill="none" stroke="black" d="M214,-425.912C220,-425.912 226,-431.912 226,-437.912"/>
<polyline fill="none" stroke="black" points="226,-437.912 226,-533.912 "/>
<path fill="none" stroke="black" d="M226,-533.912C226,-539.912 220,-545.912 214,-545.912"/>
<polyline fill="none" stroke="black" points="214,-545.912 13,-545.912 "/>
<path fill="none" stroke="black" d="M13,-545.912C7,-545.912 1,-539.912 1,-533.912"/>
<polyline fill="none" stroke="black" points="1,-533.912 1,-437.912 "/>
<path fill="none" stroke="black" d="M1,-437.912C1,-431.912 7,-425.912 13,-425.912"/>
<text text-anchor="middle" x="113.5" y="-529.312" font-family="Times Roman,serif" font-size="14.00">MachineTranslationsController</text>
<polyline fill="none" stroke="black" points="1,-519.912 226,-519.912 "/>
<text text-anchor="start" x="9" y="-503.312" font-family="Times Roman,serif" font-size="14.00">translate</text>
<text text-anchor="start" x="9" y="-485.312" font-family="Times Roman,serif" font-size="14.00">translators</text>
<polyline fill="none" stroke="black" points="1,-475.912 226,-475.912 "/>
<polyline fill="none" stroke="black" points="1,-451.912 226,-451.912 "/>
<text text-anchor="start" x="9" y="-435.312" font-family="Times Roman,serif" font-size="14.00">_layout</text>
</g>
<!-- ApplicationController -->
<g id="node7" class="node"><title>ApplicationController</title>
<polyline fill="none" stroke="black" points="175.323,-242.409 389.323,-242.409 "/>
<path fill="none" stroke="black" d="M389.323,-242.409C395.323,-242.409 401.323,-248.409 401.323,-254.409"/>
<polyline fill="none" stroke="black" points="401.323,-254.409 401.323,-350.409 "/>
<path fill="none" stroke="black" d="M401.323,-350.409C401.323,-356.409 395.323,-362.409 389.323,-362.409"/>
<polyline fill="none" stroke="black" points="389.323,-362.409 175.323,-362.409 "/>
<path fill="none" stroke="black" d="M175.323,-362.409C169.323,-362.409 163.323,-356.409 163.323,-350.409"/>
<polyline fill="none" stroke="black" points="163.323,-350.409 163.323,-254.409 "/>
<path fill="none" stroke="black" d="M163.323,-254.409C163.323,-248.409 169.323,-242.409 175.323,-242.409"/>
<text text-anchor="middle" x="282.323" y="-345.809" font-family="Times Roman,serif" font-size="14.00">ApplicationController</text>
<polyline fill="none" stroke="black" points="163.323,-336.409 401.323,-336.409 "/>
<text text-anchor="start" x="171.323" y="-319.809" font-family="Times Roman,serif" font-size="14.00">_one_time_conditions_valid_68?</text>
<text text-anchor="start" x="171.323" y="-301.809" font-family="Times Roman,serif" font-size="14.00">_one_time_conditions_valid_70?</text>
<polyline fill="none" stroke="black" points="163.323,-292.409 401.323,-292.409 "/>
<polyline fill="none" stroke="black" points="163.323,-268.409 401.323,-268.409 "/>
<text text-anchor="start" x="171.323" y="-251.809" font-family="Times Roman,serif" font-size="14.00">_layout</text>
</g>
<!-- ApplicationController&#45;&gt;TweetDraftsController -->
<g id="edge2" class="edge"><title>ApplicationController&#45;&gt;TweetDraftsController</title>
<path fill="none" stroke="black" d="M225.299,-242.355C206.723,-222.791 186.105,-201.077 167.519,-181.503"/>
</g>
<!-- ApplicationController&#45;&gt;HomeController -->
<g id="edge4" class="edge"><title>ApplicationController&#45;&gt;HomeController</title>
<path fill="none" stroke="black" d="M336.966,-362.618C357.578,-385.329 380.812,-410.931 400.61,-432.745"/>
</g>
<!-- ApplicationController&#45;&gt;TweetsController -->
<g id="edge6" class="edge"><title>ApplicationController&#45;&gt;TweetsController</title>
<path fill="none" stroke="black" d="M334.451,-242.307C337.488,-238.806 340.586,-235.234 343.726,-231.614"/>
</g>
<!-- ApplicationController&#45;&gt;MachineTranslationsController -->
<g id="edge8" class="edge"><title>ApplicationController&#45;&gt;MachineTranslationsController</title>
<path fill="none" stroke="black" d="M227.044,-362.495C208.388,-382.773 187.568,-405.403 168.903,-425.691"/>
</g>
</g>
</svg>
