<?xml version="1.0" encoding="UTF-8" standalone="no"?>
<!DOCTYPE svg PUBLIC "-//W3C//DTD SVG 1.1//EN"
 "http://www.w3.org/Graphics/SVG/1.1/DTD/svg11.dtd">
<!-- Generated by graphviz version 2.26.3 (20100126.1600)
 -->
<!-- Title: controllers_diagram Pages: 1 -->
<svg width="976pt" height="763pt"
 viewBox="0.00 0.00 976.00 763.00" xmlns="http://www.w3.org/2000/svg" xmlns:xlink="http://www.w3.org/1999/xlink">
<g id="graph1" class="graph" transform="scale(1 1) rotate(0) translate(4 759)">
<title>controllers_diagram</title>
<polygon fill="white" stroke="white" points="-4,5 -4,-759 973,-759 973,5 -4,5"/>
<!-- _diagram_info -->
<g id="node1" class="node"><title>_diagram_info</title>
<text text-anchor="start" x="229" y="-738.3" font-family="Times Roman,serif" font-size="13.00">Controllers diagram</text>
<text text-anchor="start" x="229" y="-721.3" font-family="Times Roman,serif" font-size="13.00">Date: Nov 17 2013 &#45; 21:58</text>
<text text-anchor="start" x="229" y="-704.3" font-family="Times Roman,serif" font-size="13.00">Migration version: 20130910025920</text>
<text text-anchor="start" x="229" y="-687.3" font-family="Times Roman,serif" font-size="13.00">Generated by RailRoady 1.1.0</text>
<text text-anchor="start" x="229" y="-670.3" font-family="Times Roman,serif" font-size="13.00">http://railroady.prestonlee.com</text>
</g>
<!-- OmniauthCallbacksController -->
<g id="node2" class="node"><title>OmniauthCallbacksController</title>
<polyline fill="none" stroke="black" points="761,-1.5 955,-1.5 "/>
<path fill="none" stroke="black" d="M955,-1.5C961,-1.5 967,-7.5 967,-13.5"/>
<polyline fill="none" stroke="black" points="967,-13.5 967,-109.5 "/>
<path fill="none" stroke="black" d="M967,-109.5C967,-115.5 961,-121.5 955,-121.5"/>
<polyline fill="none" stroke="black" points="955,-121.5 761,-121.5 "/>
<path fill="none" stroke="black" d="M761,-121.5C755,-121.5 749,-115.5 749,-109.5"/>
<polyline fill="none" stroke="black" points="749,-109.5 749,-13.5 "/>
<path fill="none" stroke="black" d="M749,-13.5C749,-7.5 755,-1.5 761,-1.5"/>
<text text-anchor="middle" x="858" y="-104.9" font-family="Times Roman,serif" font-size="14.00">OmniauthCallbacksController</text>
<polyline fill="none" stroke="black" points="749,-95.5 967,-95.5 "/>
<text text-anchor="start" x="757" y="-78.9" font-family="Times Roman,serif" font-size="14.00">all</text>
<text text-anchor="start" x="757" y="-60.9" font-family="Times Roman,serif" font-size="14.00">twitter</text>
<polyline fill="none" stroke="black" points="749,-51.5 967,-51.5 "/>
<polyline fill="none" stroke="black" points="749,-27.5 967,-27.5 "/>
<text text-anchor="start" x="757" y="-10.9" font-family="Times Roman,serif" font-size="14.00">_layout</text>
</g>
<!-- HomeController -->
<g id="node3" class="node"><title>HomeController</title>
<polyline fill="none" stroke="black" points="99.128,-101.973 200.128,-101.973 "/>
<path fill="none" stroke="black" d="M200.128,-101.973C206.128,-101.973 212.128,-107.973 212.128,-113.973"/>
<polyline fill="none" stroke="black" points="212.128,-113.973 212.128,-191.973 "/>
<path fill="none" stroke="black" d="M212.128,-191.973C212.128,-197.973 206.128,-203.973 200.128,-203.973"/>
<polyline fill="none" stroke="black" points="200.128,-203.973 99.128,-203.973 "/>
<path fill="none" stroke="black" d="M99.128,-203.973C93.128,-203.973 87.128,-197.973 87.128,-191.973"/>
<polyline fill="none" stroke="black" points="87.128,-191.973 87.128,-113.973 "/>
<path fill="none" stroke="black" d="M87.128,-113.973C87.128,-107.973 93.128,-101.973 99.128,-101.973"/>
<text text-anchor="middle" x="149.628" y="-187.373" font-family="Times Roman,serif" font-size="14.00">HomeController</text>
<polyline fill="none" stroke="black" points="87.128,-177.973 212.128,-177.973 "/>
<text text-anchor="start" x="95.128" y="-161.373" font-family="Times Roman,serif" font-size="14.00">index</text>
<polyline fill="none" stroke="black" points="87.128,-151.973 212.128,-151.973 "/>
<polyline fill="none" stroke="black" points="87.128,-127.973 212.128,-127.973 "/>
<text text-anchor="start" x="95.128" y="-111.373" font-family="Times Roman,serif" font-size="14.00">_layout</text>
</g>
<!-- PostsController -->
<g id="node4" class="node"><title>PostsController</title>
<polyline fill="none" stroke="black" points="514.15,-382.426 737.15,-382.426 "/>
<path fill="none" stroke="black" d="M737.15,-382.426C743.15,-382.426 749.15,-388.426 749.15,-394.426"/>
<polyline fill="none" stroke="black" points="749.15,-394.426 749.15,-618.426 "/>
<path fill="none" stroke="black" d="M749.15,-618.426C749.15,-624.426 743.15,-630.426 737.15,-630.426"/>
<polyline fill="none" stroke="black" points="737.15,-630.426 514.15,-630.426 "/>
<path fill="none" stroke="black" d="M514.15,-630.426C508.15,-630.426 502.15,-624.426 502.15,-618.426"/>
<polyline fill="none" stroke="black" points="502.15,-618.426 502.15,-394.426 "/>
<path fill="none" stroke="black" d="M502.15,-394.426C502.15,-388.426 508.15,-382.426 514.15,-382.426"/>
<text text-anchor="middle" x="625.65" y="-613.826" font-family="Times Roman,serif" font-size="14.00">PostsController</text>
<polyline fill="none" stroke="black" points="502.15,-604.426 749.15,-604.426 "/>
<text text-anchor="start" x="510.15" y="-587.826" font-family="Times Roman,serif" font-size="14.00">_callback_before_103</text>
<text text-anchor="start" x="510.15" y="-569.826" font-family="Times Roman,serif" font-size="14.00">_one_time_conditions_valid_104?</text>
<text text-anchor="start" x="510.15" y="-551.826" font-family="Times Roman,serif" font-size="14.00">_one_time_conditions_valid_99?</text>
<text text-anchor="start" x="510.15" y="-533.826" font-family="Times Roman,serif" font-size="14.00">conversation</text>
<text text-anchor="start" x="510.15" y="-515.826" font-family="Times Roman,serif" font-size="14.00">create</text>
<text text-anchor="start" x="510.15" y="-497.826" font-family="Times Roman,serif" font-size="14.00">fetch</text>
<text text-anchor="start" x="510.15" y="-479.826" font-family="Times Roman,serif" font-size="14.00">preview</text>
<text text-anchor="start" x="510.15" y="-461.826" font-family="Times Roman,serif" font-size="14.00">show</text>
<text text-anchor="start" x="510.15" y="-443.826" font-family="Times Roman,serif" font-size="14.00">translations</text>
<polyline fill="none" stroke="black" points="502.15,-434.426 749.15,-434.426 "/>
<text text-anchor="start" x="510.15" y="-417.826" font-family="Times Roman,serif" font-size="14.00">load_model</text>
<polyline fill="none" stroke="black" points="502.15,-408.426 749.15,-408.426 "/>
<text text-anchor="start" x="510.15" y="-391.826" font-family="Times Roman,serif" font-size="14.00">_layout</text>
</g>
<!-- PostDraftsController -->
<g id="node5" class="node"><title>PostDraftsController</title>
<polyline fill="none" stroke="black" points="515.109,-89.5 649.109,-89.5 "/>
<path fill="none" stroke="black" d="M649.109,-89.5C655.109,-89.5 661.109,-95.5 661.109,-101.5"/>
<polyline fill="none" stroke="black" points="661.109,-101.5 661.109,-197.5 "/>
<path fill="none" stroke="black" d="M661.109,-197.5C661.109,-203.5 655.109,-209.5 649.109,-209.5"/>
<polyline fill="none" stroke="black" points="649.109,-209.5 515.109,-209.5 "/>
<path fill="none" stroke="black" d="M515.109,-209.5C509.109,-209.5 503.109,-203.5 503.109,-197.5"/>
<polyline fill="none" stroke="black" points="503.109,-197.5 503.109,-101.5 "/>
<path fill="none" stroke="black" d="M503.109,-101.5C503.109,-95.5 509.109,-89.5 515.109,-89.5"/>
<text text-anchor="middle" x="582.109" y="-192.9" font-family="Times Roman,serif" font-size="14.00">PostDraftsController</text>
<polyline fill="none" stroke="black" points="503.109,-183.5 661.109,-183.5 "/>
<text text-anchor="start" x="511.109" y="-166.9" font-family="Times Roman,serif" font-size="14.00">create</text>
<text text-anchor="start" x="511.109" y="-148.9" font-family="Times Roman,serif" font-size="14.00">show</text>
<polyline fill="none" stroke="black" points="503.109,-139.5 661.109,-139.5 "/>
<polyline fill="none" stroke="black" points="503.109,-115.5 661.109,-115.5 "/>
<text text-anchor="start" x="511.109" y="-98.9" font-family="Times Roman,serif" font-size="14.00">_layout</text>
</g>
<!-- MachineTranslationsController -->
<g id="node6" class="node"><title>MachineTranslationsController</title>
<polyline fill="none" stroke="black" points="13,-450.25 214,-450.25 "/>
<path fill="none" stroke="black" d="M214,-450.25C220,-450.25 226,-456.25 226,-462.25"/>
<polyline fill="none" stroke="black" points="226,-462.25 226,-558.25 "/>
<path fill="none" stroke="black" d="M226,-558.25C226,-564.25 220,-570.25 214,-570.25"/>
<polyline fill="none" stroke="black" points="214,-570.25 13,-570.25 "/>
<path fill="none" stroke="black" d="M13,-570.25C7,-570.25 1,-564.25 1,-558.25"/>
<polyline fill="none" stroke="black" points="1,-558.25 1,-462.25 "/>
<path fill="none" stroke="black" d="M1,-462.25C1,-456.25 7,-450.25 13,-450.25"/>
<text text-anchor="middle" x="113.5" y="-553.65" font-family="Times Roman,serif" font-size="14.00">MachineTranslationsController</text>
<polyline fill="none" stroke="black" points="1,-544.25 226,-544.25 "/>
<text text-anchor="start" x="9" y="-527.65" font-family="Times Roman,serif" font-size="14.00">translate</text>
<text text-anchor="start" x="9" y="-509.65" font-family="Times Roman,serif" font-size="14.00">translators</text>
<polyline fill="none" stroke="black" points="1,-500.25 226,-500.25 "/>
<polyline fill="none" stroke="black" points="1,-476.25 226,-476.25 "/>
<text text-anchor="start" x="9" y="-459.65" font-family="Times Roman,serif" font-size="14.00">_layout</text>
</g>
<!-- ApplicationController -->
<g id="node7" class="node"><title>ApplicationController</title>
<polyline fill="none" stroke="black" points="262.671,-357.553 476.671,-357.553 "/>
<path fill="none" stroke="black" d="M476.671,-357.553C482.671,-357.553 488.671,-363.553 488.671,-369.553"/>
<polyline fill="none" stroke="black" points="488.671,-369.553 488.671,-485.553 "/>
<path fill="none" stroke="black" d="M488.671,-485.553C488.671,-491.553 482.671,-497.553 476.671,-497.553"/>
<polyline fill="none" stroke="black" points="476.671,-497.553 262.671,-497.553 "/>
<path fill="none" stroke="black" d="M262.671,-497.553C256.671,-497.553 250.671,-491.553 250.671,-485.553"/>
<polyline fill="none" stroke="black" points="250.671,-485.553 250.671,-369.553 "/>
<path fill="none" stroke="black" d="M250.671,-369.553C250.671,-363.553 256.671,-357.553 262.671,-357.553"/>
<text text-anchor="middle" x="369.671" y="-480.953" font-family="Times Roman,serif" font-size="14.00">ApplicationController</text>
<polyline fill="none" stroke="black" points="250.671,-471.553 488.671,-471.553 "/>
<text text-anchor="start" x="258.671" y="-454.953" font-family="Times Roman,serif" font-size="14.00">_one_time_conditions_valid_68?</text>
<text text-anchor="start" x="258.671" y="-436.953" font-family="Times Roman,serif" font-size="14.00">_one_time_conditions_valid_70?</text>
<text text-anchor="start" x="258.671" y="-418.953" font-family="Times Roman,serif" font-size="14.00">_one_time_conditions_valid_72?</text>
<polyline fill="none" stroke="black" points="250.671,-409.553 488.671,-409.553 "/>
<text text-anchor="start" x="258.671" y="-392.953" font-family="Times Roman,serif" font-size="14.00">load_providers</text>
<polyline fill="none" stroke="black" points="250.671,-383.553 488.671,-383.553 "/>
<text text-anchor="start" x="258.671" y="-366.953" font-family="Times Roman,serif" font-size="14.00">_layout</text>
</g>
<!-- ApplicationController&#45;&gt;HomeController -->
<g id="edge2" class="edge"><title>ApplicationController&#45;&gt;HomeController</title>
<path fill="none" stroke="black" d="M313.291,-357.198C274.963,-309.371 225.136,-247.195 190.577,-204.071"/>
</g>
<!-- ApplicationController&#45;&gt;PostsController -->
<g id="edge4" class="edge"><title>ApplicationController&#45;&gt;PostsController</title>
<path fill="none" stroke="black" d="M489.042,-464.334C493.344,-465.659 497.658,-466.988 501.966,-468.316"/>
</g>
<!-- ApplicationController&#45;&gt;PostDraftsController -->
<g id="edge6" class="edge"><title>ApplicationController&#45;&gt;PostDraftsController</title>
<path fill="none" stroke="black" d="M423.278,-357.388C458.063,-311.859 502.92,-253.148 536.087,-209.737"/>
</g>
<!-- ApplicationController&#45;&gt;MachineTranslationsController -->
<g id="edge8" class="edge"><title>ApplicationController&#45;&gt;MachineTranslationsController</title>
<path fill="none" stroke="black" d="M250.585,-465.996C242.484,-468.611 234.335,-471.242 226.268,-473.846"/>
</g>
</g>
</svg>
