<?xml version="1.0" encoding="UTF-8" standalone="no"?>
<!DOCTYPE svg PUBLIC "-//W3C//DTD SVG 1.1//EN"
 "http://www.w3.org/Graphics/SVG/1.1/DTD/svg11.dtd">
<!-- Generated by graphviz version 2.26.3 (20100126.1600)
 -->
<!-- Title: models_diagram Pages: 1 -->
<svg width="589pt" height="980pt"
 viewBox="0.00 0.00 589.00 980.00" xmlns="http://www.w3.org/2000/svg" xmlns:xlink="http://www.w3.org/1999/xlink">
<g id="graph1" class="graph" transform="scale(1 1) rotate(0) translate(4 976)">
<title>models_diagram</title>
<polygon fill="white" stroke="white" points="-4,5 -4,-976 586,-976 586,5 -4,5"/>
<!-- _diagram_info -->
<g id="node1" class="node"><title>_diagram_info</title>
<text text-anchor="start" x="8" y="-822.8" font-family="Times Roman,serif" font-size="13.00">Models diagram</text>
<text text-anchor="start" x="8" y="-805.8" font-family="Times Roman,serif" font-size="13.00">Date: Nov 17 2013 &#45; 21:55</text>
<text text-anchor="start" x="8" y="-788.8" font-family="Times Roman,serif" font-size="13.00">Migration version: 20130910025920</text>
<text text-anchor="start" x="8" y="-771.8" font-family="Times Roman,serif" font-size="13.00">Generated by RailRoady 1.1.0</text>
<text text-anchor="start" x="8" y="-754.8" font-family="Times Roman,serif" font-size="13.00">http://railroady.prestonlee.com</text>
</g>
<!-- Post -->
<g id="node2" class="node"><title>Post</title>
<polyline fill="none" stroke="black" points="216.5,-307 379.5,-307 "/>
<path fill="none" stroke="black" d="M379.5,-307C385.5,-307 391.5,-313 391.5,-319"/>
<polyline fill="none" stroke="black" points="391.5,-319 391.5,-563 "/>
<path fill="none" stroke="black" d="M391.5,-563C391.5,-569 385.5,-575 379.5,-575"/>
<polyline fill="none" stroke="black" points="379.5,-575 216.5,-575 "/>
<path fill="none" stroke="black" d="M216.5,-575C210.5,-575 204.5,-569 204.5,-563"/>
<polyline fill="none" stroke="black" points="204.5,-563 204.5,-319 "/>
<path fill="none" stroke="black" d="M204.5,-319C204.5,-313 210.5,-307 216.5,-307"/>
<text text-anchor="middle" x="298" y="-558.4" font-family="Times Roman,serif" font-size="14.00">Post</text>
<polyline fill="none" stroke="black" points="204.5,-549 391.5,-549 "/>
<text text-anchor="start" x="212.5" y="-532.4" font-family="Times Roman,serif" font-size="14.00">id :integer</text>
<text text-anchor="start" x="212.5" y="-514.4" font-family="Times Roman,serif" font-size="14.00">user_id :integer</text>
<text text-anchor="start" x="212.5" y="-496.4" font-family="Times Roman,serif" font-size="14.00">original_text :text</text>
<text text-anchor="start" x="212.5" y="-478.4" font-family="Times Roman,serif" font-size="14.00">text :text</text>
<text text-anchor="start" x="212.5" y="-460.4" font-family="Times Roman,serif" font-size="14.00">truncated_text :text</text>
<text text-anchor="start" x="212.5" y="-442.4" font-family="Times Roman,serif" font-size="14.00">original_post_id :string</text>
<text text-anchor="start" x="212.5" y="-424.4" font-family="Times Roman,serif" font-size="14.00">published_post_id :string</text>
<text text-anchor="start" x="212.5" y="-406.4" font-family="Times Roman,serif" font-size="14.00">provider :string</text>
<text text-anchor="start" x="212.5" y="-388.4" font-family="Times Roman,serif" font-size="14.00">source_language :string</text>
<text text-anchor="start" x="212.5" y="-370.4" font-family="Times Roman,serif" font-size="14.00">target_language :string</text>
<text text-anchor="start" x="212.5" y="-352.4" font-family="Times Roman,serif" font-size="14.00">uuid :string</text>
<text text-anchor="start" x="212.5" y="-334.4" font-family="Times Roman,serif" font-size="14.00">created_at :datetime</text>
<text text-anchor="start" x="212.5" y="-316.4" font-family="Times Roman,serif" font-size="14.00">updated_at :datetime</text>
</g>
<!-- Tweet -->
<g id="node4" class="node"><title>Tweet</title>
<polyline fill="none" stroke="black" points="216.5,-1 379.5,-1 "/>
<path fill="none" stroke="black" d="M379.5,-1C385.5,-1 391.5,-7 391.5,-13"/>
<polyline fill="none" stroke="black" points="391.5,-13 391.5,-257 "/>
<path fill="none" stroke="black" d="M391.5,-257C391.5,-263 385.5,-269 379.5,-269"/>
<polyline fill="none" stroke="black" points="379.5,-269 216.5,-269 "/>
<path fill="none" stroke="black" d="M216.5,-269C210.5,-269 204.5,-263 204.5,-257"/>
<polyline fill="none" stroke="black" points="204.5,-257 204.5,-13 "/>
<path fill="none" stroke="black" d="M204.5,-13C204.5,-7 210.5,-1 216.5,-1"/>
<text text-anchor="middle" x="298" y="-252.4" font-family="Times Roman,serif" font-size="14.00">Tweet</text>
<polyline fill="none" stroke="black" points="204.5,-243 391.5,-243 "/>
<text text-anchor="start" x="212.5" y="-226.4" font-family="Times Roman,serif" font-size="14.00">id :integer</text>
<text text-anchor="start" x="212.5" y="-208.4" font-family="Times Roman,serif" font-size="14.00">user_id :integer</text>
<text text-anchor="start" x="212.5" y="-190.4" font-family="Times Roman,serif" font-size="14.00">original_text :text</text>
<text text-anchor="start" x="212.5" y="-172.4" font-family="Times Roman,serif" font-size="14.00">text :text</text>
<text text-anchor="start" x="212.5" y="-154.4" font-family="Times Roman,serif" font-size="14.00">truncated_text :text</text>
<text text-anchor="start" x="212.5" y="-136.4" font-family="Times Roman,serif" font-size="14.00">original_post_id :string</text>
<text text-anchor="start" x="212.5" y="-118.4" font-family="Times Roman,serif" font-size="14.00">published_post_id :string</text>
<text text-anchor="start" x="212.5" y="-100.4" font-family="Times Roman,serif" font-size="14.00">provider :string</text>
<text text-anchor="start" x="212.5" y="-82.4" font-family="Times Roman,serif" font-size="14.00">source_language :string</text>
<text text-anchor="start" x="212.5" y="-64.4" font-family="Times Roman,serif" font-size="14.00">target_language :string</text>
<text text-anchor="start" x="212.5" y="-46.4" font-family="Times Roman,serif" font-size="14.00">uuid :string</text>
<text text-anchor="start" x="212.5" y="-28.4" font-family="Times Roman,serif" font-size="14.00">created_at :datetime</text>
<text text-anchor="start" x="212.5" y="-10.4" font-family="Times Roman,serif" font-size="14.00">updated_at :datetime</text>
</g>
<!-- Post&#45;&gt;Tweet -->
<g id="edge6" class="edge"><title>Post&#45;&gt;Tweet</title>
<path fill="none" stroke="black" d="M298,-306.784C298,-294.258 298,-281.563 298,-269.039"/>
</g>
<!-- User -->
<g id="node3" class="node"><title>User</title>
<polyline fill="none" stroke="black" points="280,-613 514,-613 "/>
<path fill="none" stroke="black" d="M514,-613C520,-613 526,-619 526,-625"/>
<polyline fill="none" stroke="black" points="526,-625 526,-959 "/>
<path fill="none" stroke="black" d="M526,-959C526,-965 520,-971 514,-971"/>
<polyline fill="none" stroke="black" points="514,-971 280,-971 "/>
<path fill="none" stroke="black" d="M280,-971C274,-971 268,-965 268,-959"/>
<polyline fill="none" stroke="black" points="268,-959 268,-625 "/>
<path fill="none" stroke="black" d="M268,-625C268,-619 274,-613 280,-613"/>
<text text-anchor="middle" x="397" y="-954.4" font-family="Times Roman,serif" font-size="14.00">User</text>
<polyline fill="none" stroke="black" points="268,-945 526,-945 "/>
<text text-anchor="start" x="276" y="-928.4" font-family="Times Roman,serif" font-size="14.00">id :integer</text>
<text text-anchor="start" x="276" y="-910.4" font-family="Times Roman,serif" font-size="14.00">email :string</text>
<text text-anchor="start" x="276" y="-892.4" font-family="Times Roman,serif" font-size="14.00">encrypted_password :string</text>
<text text-anchor="start" x="276" y="-874.4" font-family="Times Roman,serif" font-size="14.00">reset_password_token :string</text>
<text text-anchor="start" x="276" y="-856.4" font-family="Times Roman,serif" font-size="14.00">reset_password_sent_at :datetime</text>
<text text-anchor="start" x="276" y="-838.4" font-family="Times Roman,serif" font-size="14.00">remember_created_at :datetime</text>
<text text-anchor="start" x="276" y="-820.4" font-family="Times Roman,serif" font-size="14.00">sign_in_count :integer</text>
<text text-anchor="start" x="276" y="-802.4" font-family="Times Roman,serif" font-size="14.00">current_sign_in_at :datetime</text>
<text text-anchor="start" x="276" y="-784.4" font-family="Times Roman,serif" font-size="14.00">last_sign_in_at :datetime</text>
<text text-anchor="start" x="276" y="-766.4" font-family="Times Roman,serif" font-size="14.00">current_sign_in_ip :string</text>
<text text-anchor="start" x="276" y="-748.4" font-family="Times Roman,serif" font-size="14.00">last_sign_in_ip :string</text>
<text text-anchor="start" x="276" y="-730.4" font-family="Times Roman,serif" font-size="14.00">created_at :datetime</text>
<text text-anchor="start" x="276" y="-712.4" font-family="Times Roman,serif" font-size="14.00">updated_at :datetime</text>
<text text-anchor="start" x="276" y="-694.4" font-family="Times Roman,serif" font-size="14.00">provider :string</text>
<text text-anchor="start" x="276" y="-676.4" font-family="Times Roman,serif" font-size="14.00">uid :string</text>
<text text-anchor="start" x="276" y="-658.4" font-family="Times Roman,serif" font-size="14.00">name :string</text>
<text text-anchor="start" x="276" y="-640.4" font-family="Times Roman,serif" font-size="14.00">twitter_oauth_token :string</text>
<text text-anchor="start" x="276" y="-622.4" font-family="Times Roman,serif" font-size="14.00">twitter_oauth_token_secret :string</text>
</g>
<!-- User&#45;&gt;Post -->
<g id="edge2" class="edge"><title>User&#45;&gt;Post</title>
<path fill="none" stroke="#412d4f" d="M344.308,-605.182C342.397,-598.407 340.492,-591.654 338.605,-584.964"/>
<ellipse fill="none" stroke="#412d4f" cx="345.399" cy="-609.051" rx="4.00001" ry="4.00001"/>
<polygon fill="#412d4f" stroke="#412d4f" points="338.57,-584.838 340.186,-573.992 337.212,-580.025 335.855,-575.213 335.855,-575.213 335.855,-575.213 337.212,-580.025 331.524,-576.435 338.57,-584.838 338.57,-584.838"/>
</g>
<!-- PostDraft -->
<g id="node5" class="node"><title>PostDraft</title>
<polyline fill="none" stroke="black" points="420.5,-361 569.5,-361 "/>
<path fill="none" stroke="black" d="M569.5,-361C575.5,-361 581.5,-367 581.5,-373"/>
<polyline fill="none" stroke="black" points="581.5,-373 581.5,-509 "/>
<path fill="none" stroke="black" d="M581.5,-509C581.5,-515 575.5,-521 569.5,-521"/>
<polyline fill="none" stroke="black" points="569.5,-521 420.5,-521 "/>
<path fill="none" stroke="black" d="M420.5,-521C414.5,-521 408.5,-515 408.5,-509"/>
<polyline fill="none" stroke="black" points="408.5,-509 408.5,-373 "/>
<path fill="none" stroke="black" d="M408.5,-373C408.5,-367 414.5,-361 420.5,-361"/>
<text text-anchor="middle" x="495" y="-504.4" font-family="Times Roman,serif" font-size="14.00">PostDraft</text>
<polyline fill="none" stroke="black" points="408.5,-495 581.5,-495 "/>
<text text-anchor="start" x="416.5" y="-478.4" font-family="Times Roman,serif" font-size="14.00">id :integer</text>
<text text-anchor="start" x="416.5" y="-460.4" font-family="Times Roman,serif" font-size="14.00">user_id :integer</text>
<text text-anchor="start" x="416.5" y="-442.4" font-family="Times Roman,serif" font-size="14.00">text :text</text>
<text text-anchor="start" x="416.5" y="-424.4" font-family="Times Roman,serif" font-size="14.00">original_post_id :string</text>
<text text-anchor="start" x="416.5" y="-406.4" font-family="Times Roman,serif" font-size="14.00">provider :string</text>
<text text-anchor="start" x="416.5" y="-388.4" font-family="Times Roman,serif" font-size="14.00">created_at :datetime</text>
<text text-anchor="start" x="416.5" y="-370.4" font-family="Times Roman,serif" font-size="14.00">updated_at :datetime</text>
</g>
<!-- User&#45;&gt;PostDraft -->
<g id="edge4" class="edge"><title>User&#45;&gt;PostDraft</title>
<path fill="none" stroke="#f5010f" d="M449.21,-605.004C456.399,-579.255 463.495,-553.838 469.877,-530.982"/>
<ellipse fill="none" stroke="#f5010f" cx="448.081" cy="-609.048" rx="4.00001" ry="4.00001"/>
<polygon fill="#f5010f" stroke="#f5010f" points="469.877,-530.981 476.901,-522.56 471.222,-526.165 472.566,-521.349 472.566,-521.349 472.566,-521.349 471.222,-526.165 468.232,-520.139 469.877,-530.981 469.877,-530.981"/>
</g>
</g>
</svg>
