<?xml version="1.0" encoding="UTF-8" standalone="no"?>
<!DOCTYPE svg PUBLIC "-//W3C//DTD SVG 1.1//EN"
 "http://www.w3.org/Graphics/SVG/1.1/DTD/svg11.dtd">
<!-- Generated by graphviz version 2.26.3 (20100126.1600)
 -->
<!-- Title: models_diagram Pages: 1 -->
<svg width="414pt" height="176pt"
 viewBox="0.00 0.00 414.00 176.00" xmlns="http://www.w3.org/2000/svg" xmlns:xlink="http://www.w3.org/1999/xlink">
<g id="graph1" class="graph" transform="scale(1 1) rotate(0) translate(4 172)">
<title>models_diagram</title>
<polygon fill="white" stroke="white" points="-4,5 -4,-172 411,-172 411,5 -4,5"/>
<!-- _diagram_info -->
<g id="node1" class="node"><title>_diagram_info</title>
<text text-anchor="start" x="8" y="-151.8" font-family="Times Roman,serif" font-size="13.00">Models diagram</text>
<text text-anchor="start" x="8" y="-134.8" font-family="Times Roman,serif" font-size="13.00">Date: Aug 17 2013 &#45; 20:01</text>
<text text-anchor="start" x="8" y="-117.8" font-family="Times Roman,serif" font-size="13.00">Migration version: 20130813011044</text>
<text text-anchor="start" x="8" y="-100.8" font-family="Times Roman,serif" font-size="13.00">Generated by RailRoady 1.1.0</text>
<text text-anchor="start" x="8" y="-83.8" font-family="Times Roman,serif" font-size="13.00">http://railroady.prestonlee.com</text>
</g>
<!-- TweetDraft -->
<g id="node2" class="node"><title>TweetDraft</title>
<ellipse fill="none" stroke="black" cx="239" cy="-19" rx="67.1751" ry="18.3848"/>
<text text-anchor="middle" x="239" y="-15.4" font-family="Times Roman,serif" font-size="14.00">TweetDraft</text>
</g>
<!-- User -->
<g id="node3" class="node"><title>User</title>
<ellipse fill="none" stroke="black" cx="302" cy="-121" rx="33.9411" ry="18.3848"/>
<text text-anchor="middle" x="302" y="-117.4" font-family="Times Roman,serif" font-size="14.00">User</text>
</g>
<!-- User&#45;&gt;TweetDraft -->
<g id="edge4" class="edge"><title>User&#45;&gt;TweetDraft</title>
<path fill="none" stroke="#4f24cb" d="M286.768,-96.339C277.364,-81.113 265.293,-61.5702 255.639,-45.9393"/>
<ellipse fill="none" stroke="#4f24cb" cx="288.924" cy="-99.8298" rx="4.00002" ry="4.00002"/>
<polygon fill="#4f24cb" stroke="#4f24cb" points="255.527,-45.7583 254.101,-34.8855 252.9,-41.5043 250.272,-37.2503 250.272,-37.2503 250.272,-37.2503 252.9,-41.5043 246.444,-39.615 255.527,-45.7583 255.527,-45.7583"/>
</g>
<!-- Tweet -->
<g id="node4" class="node"><title>Tweet</title>
<ellipse fill="none" stroke="black" cx="365" cy="-19" rx="41.2167" ry="18.3848"/>
<text text-anchor="middle" x="365" y="-15.4" font-family="Times Roman,serif" font-size="14.00">Tweet</text>
</g>
<!-- User&#45;&gt;Tweet -->
<g id="edge2" class="edge"><title>User&#45;&gt;Tweet</title>
<path fill="none" stroke="#5b06e1" d="M317.259,-96.2942C326.727,-80.9658 338.889,-61.2751 348.568,-45.6044"/>
<ellipse fill="none" stroke="#5b06e1" cx="315.076" cy="-99.8298" rx="4.00002" ry="4.00002"/>
<polygon fill="#5b06e1" stroke="#5b06e1" points="348.686,-45.4137 357.769,-39.2704 351.313,-41.1597 353.941,-36.9057 353.941,-36.9057 353.941,-36.9057 351.313,-41.1597 350.112,-34.5409 348.686,-45.4137 348.686,-45.4137"/>
</g>
</g>
</svg>
