<?xml version="1.0" encoding="UTF-8" standalone="no"?>
<!DOCTYPE svg PUBLIC "-//W3C//DTD SVG 1.1//EN"
 "http://www.w3.org/Graphics/SVG/1.1/DTD/svg11.dtd">
<!-- Generated by graphviz version 2.26.3 (20100126.1600)
 -->
<!-- Title: models_diagram Pages: 1 -->
<svg width="422pt" height="250pt"
 viewBox="0.00 0.00 422.00 250.00" xmlns="http://www.w3.org/2000/svg" xmlns:xlink="http://www.w3.org/1999/xlink">
<g id="graph1" class="graph" transform="scale(1 1) rotate(0) translate(4 246)">
<title>models_diagram</title>
<polygon fill="white" stroke="white" points="-4,5 -4,-246 419,-246 419,5 -4,5"/>
<!-- _diagram_info -->
<g id="node1" class="node"><title>_diagram_info</title>
<text text-anchor="start" x="8" y="-225.8" font-family="Times Roman,serif" font-size="13.00">Models diagram</text>
<text text-anchor="start" x="8" y="-208.8" font-family="Times Roman,serif" font-size="13.00">Date: Nov 17 2013 &#45; 21:56</text>
<text text-anchor="start" x="8" y="-191.8" font-family="Times Roman,serif" font-size="13.00">Migration version: 20130910025920</text>
<text text-anchor="start" x="8" y="-174.8" font-family="Times Roman,serif" font-size="13.00">Generated by RailRoady 1.1.0</text>
<text text-anchor="start" x="8" y="-157.8" font-family="Times Roman,serif" font-size="13.00">http://railroady.prestonlee.com</text>
</g>
<!-- Post -->
<g id="node2" class="node"><title>Post</title>
<ellipse fill="none" stroke="black" cx="248" cy="-93" rx="32.0265" ry="18.3848"/>
<text text-anchor="middle" x="248" y="-89.4" font-family="Times Roman,serif" font-size="14.00">Post</text>
</g>
<!-- Tweet -->
<g id="node4" class="node"><title>Tweet</title>
<ellipse fill="none" stroke="black" cx="248" cy="-19" rx="41.2167" ry="18.3848"/>
<text text-anchor="middle" x="248" y="-15.4" font-family="Times Roman,serif" font-size="14.00">Tweet</text>
</g>
<!-- Post&#45;&gt;Tweet -->
<g id="edge6" class="edge"><title>Post&#45;&gt;Tweet</title>
<path fill="none" stroke="black" d="M248,-74.3267C248,-63.1088 248,-48.8841 248,-37.6674"/>
</g>
<!-- User -->
<g id="node3" class="node"><title>User</title>
<ellipse fill="none" stroke="black" cx="302" cy="-195" rx="33.9411" ry="18.3848"/>
<text text-anchor="middle" x="302" y="-191.4" font-family="Times Roman,serif" font-size="14.00">User</text>
</g>
<!-- User&#45;&gt;Post -->
<g id="edge2" class="edge"><title>User&#45;&gt;Post</title>
<path fill="none" stroke="#3c93ba" d="M288.406,-169.323C280.388,-154.176 270.255,-135.037 262.143,-119.714"/>
<ellipse fill="none" stroke="#3c93ba" cx="290.474" cy="-173.229" rx="4.00002" ry="4.00002"/>
<polygon fill="#3c93ba" stroke="#3c93ba" points="262.069,-119.574 261.367,-108.631 259.729,-115.155 257.39,-110.736 257.39,-110.736 257.39,-110.736 259.729,-115.155 253.413,-112.842 262.069,-119.574 262.069,-119.574"/>
</g>
<!-- PostDraft -->
<g id="node5" class="node"><title>PostDraft</title>
<ellipse fill="none" stroke="black" cx="356" cy="-93" rx="57.9828" ry="18.3848"/>
<text text-anchor="middle" x="356" y="-89.4" font-family="Times Roman,serif" font-size="14.00">PostDraft</text>
</g>
<!-- User&#45;&gt;PostDraft -->
<g id="edge4" class="edge"><title>User&#45;&gt;PostDraft</title>
<path fill="none" stroke="#ad6233" d="M315.543,-169.419C323.454,-154.475 333.437,-135.62 341.506,-120.378"/>
<ellipse fill="none" stroke="#ad6233" cx="313.526" cy="-173.229" rx="4.00002" ry="4.00002"/>
<polygon fill="#ad6233" stroke="#ad6233" points="341.568,-120.259 350.224,-113.527 343.908,-115.841 346.247,-111.422 346.247,-111.422 346.247,-111.422 343.908,-115.841 342.27,-109.316 341.568,-120.259 341.568,-120.259"/>
</g>
</g>
</svg>
