<?xml version="1.0" encoding="UTF-8" standalone="no"?>
<!-- Generated by graphviz version 2.26.3 (20100126.1600)
 -->

<!-- Title: models_diagram Pages: 1 -->

<svg
   xmlns:dc="http://purl.org/dc/elements/1.1/"
   xmlns:cc="http://creativecommons.org/ns#"
   xmlns:rdf="http://www.w3.org/1999/02/22-rdf-syntax-ns#"
   xmlns:svg="http://www.w3.org/2000/svg"
   xmlns="http://www.w3.org/2000/svg"
   xmlns:sodipodi="http://sodipodi.sourceforge.net/DTD/sodipodi-0.dtd"
   xmlns:inkscape="http://www.inkscape.org/namespaces/inkscape"
   width="414pt"
   height="176pt"
   viewBox="0.00 0.00 414.00 176.00"
   id="svg3154"
   version="1.1"
   inkscape:version="0.47 r22583"
   sodipodi:docname="models_brief.svg"
   inkscape:export-filename="/home/caiosba/Trabalhos/Meedan/meedan-translatedesk/doc/models_brief.png"
   inkscape:export-xdpi="90"
   inkscape:export-ydpi="90">
  <metadata
     id="metadata3217">
    <rdf:RDF>
      <cc:Work
         rdf:about="">
        <dc:format>image/svg+xml</dc:format>
        <dc:type
           rdf:resource="http://purl.org/dc/dcmitype/StillImage" />
        <dc:title></dc:title>
      </cc:Work>
    </rdf:RDF>
  </metadata>
  <defs
     id="defs3215">
    <inkscape:perspective
       sodipodi:type="inkscape:persp3d"
       inkscape:vp_x="0 : 110 : 1"
       inkscape:vp_y="0 : 1000 : 0"
       inkscape:vp_z="517.5 : 110 : 1"
       inkscape:persp3d-origin="258.75 : 73.333333 : 1"
       id="perspective3219" />
  </defs>
  <sodipodi:namedview
     pagecolor="#ffffff"
     bordercolor="#666666"
     borderopacity="1"
     objecttolerance="10"
     gridtolerance="10"
     guidetolerance="10"
     inkscape:pageopacity="0"
     inkscape:pageshadow="2"
     inkscape:window-width="1024"
     inkscape:window-height="551"
     id="namedview3213"
     showgrid="false"
     inkscape:zoom="1.0376812"
     inkscape:cx="258.75"
     inkscape:cy="110"
     inkscape:window-x="0"
     inkscape:window-y="0"
     inkscape:window-maximized="1"
     inkscape:current-layer="svg3154" />
  <g
     id="graph1"
     class="graph"
     transform="scale(1 1) rotate(0) translate(4 172)">
    <title
       id="title3157">models_diagram</title>
    <polygon
       fill="white"
       stroke="white"
       points="-4,5 -4,-172 411,-172 411,5 -4,5"
       id="polygon3159" />
    <!-- _diagram_info -->
    <g
       id="node1"
       class="node">
      <title
         id="title3162">_diagram_info</title>
      <text
         text-anchor="start"
         x="8"
         y="-151.8"
         font-family="Times Roman,serif"
         font-size="13.00"
         id="text3164">Models diagram</text>
      <text
         text-anchor="start"
         x="8"
         y="-134.8"
         font-family="Times Roman,serif"
         font-size="13.00"
         id="text3166">Date: Aug 17 2013 - 20:01</text>
      <text
         text-anchor="start"
         x="8"
         y="-117.8"
         font-family="Times Roman,serif"
         font-size="13.00"
         id="text3168">Migration version: 20130813011044</text>
      <text
         text-anchor="start"
         x="8"
         y="-100.8"
         font-family="Times Roman,serif"
         font-size="13.00"
         id="text3170">Generated by RailRoady 1.1.0</text>
      <text
         text-anchor="start"
         x="8"
         y="-83.8"
         font-family="Times Roman,serif"
         font-size="13.00"
         id="text3172">http://railroady.prestonlee.com</text>
    </g>
    <!-- TweetDraft -->
    <g
       id="node2"
       class="node">
      <title
         id="title3175">TweetDraft</title>
      <ellipse
         fill="none"
         stroke="black"
         cx="239"
         cy="-19"
         rx="67.1751"
         ry="18.3848"
         id="ellipse3177"
         d="m 306.1751,-19 c 0,10.1536446 -30.07532,18.38479996 -67.1751,18.38479996 -37.09978,0 -67.1751,-8.23115536 -67.1751,-18.38479996 0,-10.153645 30.07532,-18.3848 67.1751,-18.3848 37.09978,0 67.1751,8.231155 67.1751,18.3848 z" />
      <text
         text-anchor="middle"
         x="239"
         y="-15.4"
         font-family="Times Roman,serif"
         font-size="14.00"
         id="text3179">TweetDraft</text>
    </g>
    <!-- User -->
    <g
       id="node3"
       class="node">
      <title
         id="title3182">User</title>
      <ellipse
         fill="none"
         stroke="black"
         cx="302"
         cy="-121"
         rx="33.9411"
         ry="18.3848"
         id="ellipse3184"
         d="m 335.9411,-121 c 0,10.15364 -15.19595,18.3848 -33.9411,18.3848 -18.74515,0 -33.9411,-8.23116 -33.9411,-18.3848 0,-10.15364 15.19595,-18.3848 33.9411,-18.3848 18.74515,0 33.9411,8.23116 33.9411,18.3848 z" />
      <text
         text-anchor="middle"
         x="302"
         y="-117.4"
         font-family="Times Roman,serif"
         font-size="14.00"
         id="text3186">User</text>
    </g>
    <!-- User&#45;&gt;TweetDraft -->
    <g
       id="edge4"
       class="edge">
      <title
         id="title3189">User-&gt;TweetDraft</title>
      <path
         fill="none"
         stroke="#4f24cb"
         d="M286.768,-96.339C277.364,-81.113 265.293,-61.5702 255.639,-45.9393"
         id="path3191" />
      <ellipse
         fill="none"
         stroke="#4f24cb"
         cx="288.924"
         cy="-99.8298"
         rx="4.00002"
         ry="4.00002"
         id="ellipse3193"
         d="m 292.92403,-99.829803 c 0,2.20915 -1.79087,4.00002 -4.00002,4.00002 -2.20915,0 -4.00002,-1.79087 -4.00002,-4.00002 0,-2.209147 1.79087,-4.000017 4.00002,-4.000017 2.20915,0 4.00002,1.79087 4.00002,4.000017 z" />
      <polygon
         fill="#4f24cb"
         stroke="#4f24cb"
         points="255.527,-45.7583 254.101,-34.8855 252.9,-41.5043 250.272,-37.2503 250.272,-37.2503 250.272,-37.2503 252.9,-41.5043 246.444,-39.615 255.527,-45.7583 255.527,-45.7583"
         id="polygon3195" />
    </g>
    <!-- Tweet -->
    <g
       id="node4"
       class="node">
      <title
         id="title3198">Tweet</title>
      <ellipse
         fill="none"
         stroke="black"
         cx="365"
         cy="-19"
         rx="41.2167"
         ry="18.3848"
         id="ellipse3200"
         d="m 406.2167,-19 c 0,10.1536446 -18.45334,18.38479996 -41.2167,18.38479996 -22.76336,0 -41.2167,-8.23115536 -41.2167,-18.38479996 0,-10.153645 18.45334,-18.3848 41.2167,-18.3848 22.76336,0 41.2167,8.231155 41.2167,18.3848 z" />
      <text
         text-anchor="middle"
         x="365"
         y="-15.4"
         font-family="Times Roman,serif"
         font-size="14.00"
         id="text3202">Tweet</text>
    </g>
    <!-- User&#45;&gt;Tweet -->
    <g
       id="edge2"
       class="edge">
      <title
         id="title3205">User-&gt;Tweet</title>
      <path
         fill="none"
         stroke="#5b06e1"
         d="M317.259,-96.2942C326.727,-80.9658 338.889,-61.2751 348.568,-45.6044"
         id="path3207" />
      <ellipse
         fill="none"
         stroke="#5b06e1"
         cx="315.076"
         cy="-99.8298"
         rx="4.00002"
         ry="4.00002"
         id="ellipse3209"
         d="m 319.07601,-99.829803 c 0,2.20915 -1.79087,4.00002 -4.00002,4.00002 -2.20915,0 -4.00002,-1.79087 -4.00002,-4.00002 0,-2.209147 1.79087,-4.000017 4.00002,-4.000017 2.20915,0 4.00002,1.79087 4.00002,4.000017 z" />
      <polygon
         fill="#5b06e1"
         stroke="#5b06e1"
         points="348.686,-45.4137 357.769,-39.2704 351.313,-41.1597 353.941,-36.9057 353.941,-36.9057 353.941,-36.9057 351.313,-41.1597 350.112,-34.5409 348.686,-45.4137 348.686,-45.4137"
         id="polygon3211" />
    </g>
  </g>
</svg>
