<?xml version="1.0" encoding="UTF-8" standalone="no"?>
<!DOCTYPE svg PUBLIC "-//W3C//DTD SVG 1.1//EN"
 "http://www.w3.org/Graphics/SVG/1.1/DTD/svg11.dtd">
<!-- Generated by graphviz version 2.26.3 (20100126.1600)
 -->
<!-- Title: models_diagram Pages: 1 -->
<svg width="608pt" height="638pt"
 viewBox="0.00 0.00 608.00 638.00" xmlns="http://www.w3.org/2000/svg" xmlns:xlink="http://www.w3.org/1999/xlink">
<g id="graph1" class="graph" transform="scale(1 1) rotate(0) translate(4 634)">
<title>models_diagram</title>
<polygon fill="white" stroke="white" points="-4,5 -4,-634 605,-634 605,5 -4,5"/>
<!-- _diagram_info -->
<g id="node1" class="node"><title>_diagram_info</title>
<text text-anchor="start" x="8" y="-480.8" font-family="Times Roman,serif" font-size="13.00">Models diagram</text>
<text text-anchor="start" x="8" y="-463.8" font-family="Times Roman,serif" font-size="13.00">Date: Aug 17 2013 &#45; 20:00</text>
<text text-anchor="start" x="8" y="-446.8" font-family="Times Roman,serif" font-size="13.00">Migration version: 20130813011044</text>
<text text-anchor="start" x="8" y="-429.8" font-family="Times Roman,serif" font-size="13.00">Generated by RailRoady 1.1.0</text>
<text text-anchor="start" x="8" y="-412.8" font-family="Times Roman,serif" font-size="13.00">http://railroady.prestonlee.com</text>
</g>
<!-- TweetDraft -->
<g id="node2" class="node"><title>TweetDraft</title>
<polyline fill="none" stroke="black" points="211.5,-46 372.5,-46 "/>
<path fill="none" stroke="black" d="M372.5,-46C378.5,-46 384.5,-52 384.5,-58"/>
<polyline fill="none" stroke="black" points="384.5,-58 384.5,-176 "/>
<path fill="none" stroke="black" d="M384.5,-176C384.5,-182 378.5,-188 372.5,-188"/>
<polyline fill="none" stroke="black" points="372.5,-188 211.5,-188 "/>
<path fill="none" stroke="black" d="M211.5,-188C205.5,-188 199.5,-182 199.5,-176"/>
<polyline fill="none" stroke="black" points="199.5,-176 199.5,-58 "/>
<path fill="none" stroke="black" d="M199.5,-58C199.5,-52 205.5,-46 211.5,-46"/>
<text text-anchor="middle" x="292" y="-171.4" font-family="Times Roman,serif" font-size="14.00">TweetDraft</text>
<polyline fill="none" stroke="black" points="199.5,-162 384.5,-162 "/>
<text text-anchor="start" x="207.5" y="-145.4" font-family="Times Roman,serif" font-size="14.00">id :integer</text>
<text text-anchor="start" x="207.5" y="-127.4" font-family="Times Roman,serif" font-size="14.00">user_id :integer</text>
<text text-anchor="start" x="207.5" y="-109.4" font-family="Times Roman,serif" font-size="14.00">text :text</text>
<text text-anchor="start" x="207.5" y="-91.4" font-family="Times Roman,serif" font-size="14.00">original_tweet_id :string</text>
<text text-anchor="start" x="207.5" y="-73.4" font-family="Times Roman,serif" font-size="14.00">created_at :datetime</text>
<text text-anchor="start" x="207.5" y="-55.4" font-family="Times Roman,serif" font-size="14.00">updated_at :datetime</text>
</g>
<!-- User -->
<g id="node3" class="node"><title>User</title>
<polyline fill="none" stroke="black" points="280,-271 514,-271 "/>
<path fill="none" stroke="black" d="M514,-271C520,-271 526,-277 526,-283"/>
<polyline fill="none" stroke="black" points="526,-283 526,-617 "/>
<path fill="none" stroke="black" d="M526,-617C526,-623 520,-629 514,-629"/>
<polyline fill="none" stroke="black" points="514,-629 280,-629 "/>
<path fill="none" stroke="black" d="M280,-629C274,-629 268,-623 268,-617"/>
<polyline fill="none" stroke="black" points="268,-617 268,-283 "/>
<path fill="none" stroke="black" d="M268,-283C268,-277 274,-271 280,-271"/>
<text text-anchor="middle" x="397" y="-612.4" font-family="Times Roman,serif" font-size="14.00">User</text>
<polyline fill="none" stroke="black" points="268,-603 526,-603 "/>
<text text-anchor="start" x="276" y="-586.4" font-family="Times Roman,serif" font-size="14.00">id :integer</text>
<text text-anchor="start" x="276" y="-568.4" font-family="Times Roman,serif" font-size="14.00">email :string</text>
<text text-anchor="start" x="276" y="-550.4" font-family="Times Roman,serif" font-size="14.00">encrypted_password :string</text>
<text text-anchor="start" x="276" y="-532.4" font-family="Times Roman,serif" font-size="14.00">reset_password_token :string</text>
<text text-anchor="start" x="276" y="-514.4" font-family="Times Roman,serif" font-size="14.00">reset_password_sent_at :datetime</text>
<text text-anchor="start" x="276" y="-496.4" font-family="Times Roman,serif" font-size="14.00">remember_created_at :datetime</text>
<text text-anchor="start" x="276" y="-478.4" font-family="Times Roman,serif" font-size="14.00">sign_in_count :integer</text>
<text text-anchor="start" x="276" y="-460.4" font-family="Times Roman,serif" font-size="14.00">current_sign_in_at :datetime</text>
<text text-anchor="start" x="276" y="-442.4" font-family="Times Roman,serif" font-size="14.00">last_sign_in_at :datetime</text>
<text text-anchor="start" x="276" y="-424.4" font-family="Times Roman,serif" font-size="14.00">current_sign_in_ip :string</text>
<text text-anchor="start" x="276" y="-406.4" font-family="Times Roman,serif" font-size="14.00">last_sign_in_ip :string</text>
<text text-anchor="start" x="276" y="-388.4" font-family="Times Roman,serif" font-size="14.00">created_at :datetime</text>
<text text-anchor="start" x="276" y="-370.4" font-family="Times Roman,serif" font-size="14.00">updated_at :datetime</text>
<text text-anchor="start" x="276" y="-352.4" font-family="Times Roman,serif" font-size="14.00">provider :string</text>
<text text-anchor="start" x="276" y="-334.4" font-family="Times Roman,serif" font-size="14.00">uid :string</text>
<text text-anchor="start" x="276" y="-316.4" font-family="Times Roman,serif" font-size="14.00">name :string</text>
<text text-anchor="start" x="276" y="-298.4" font-family="Times Roman,serif" font-size="14.00">twitter_oauth_token :string</text>
<text text-anchor="start" x="276" y="-280.4" font-family="Times Roman,serif" font-size="14.00">twitter_oauth_token_secret :string</text>
</g>
<!-- User&#45;&gt;TweetDraft -->
<g id="edge4" class="edge"><title>User&#45;&gt;TweetDraft</title>
<path fill="none" stroke="#3ac845" d="M338.023,-262.96C330.84,-240.179 323.821,-217.919 317.516,-197.921"/>
<ellipse fill="none" stroke="#3ac845" cx="339.301" cy="-267.013" rx="4.00001" ry="4.00001"/>
<polygon fill="#3ac845" stroke="#3ac845" points="317.487,-197.83 318.772,-186.94 315.983,-193.062 314.48,-188.293 314.48,-188.293 314.48,-188.293 315.983,-193.062 310.188,-189.646 317.487,-197.83 317.487,-197.83"/>
</g>
<!-- Tweet -->
<g id="node4" class="node"><title>Tweet</title>
<polyline fill="none" stroke="black" points="413.5,-1 588.5,-1 "/>
<path fill="none" stroke="black" d="M588.5,-1C594.5,-1 600.5,-7 600.5,-13"/>
<polyline fill="none" stroke="black" points="600.5,-13 600.5,-221 "/>
<path fill="none" stroke="black" d="M600.5,-221C600.5,-227 594.5,-233 588.5,-233"/>
<polyline fill="none" stroke="black" points="588.5,-233 413.5,-233 "/>
<path fill="none" stroke="black" d="M413.5,-233C407.5,-233 401.5,-227 401.5,-221"/>
<polyline fill="none" stroke="black" points="401.5,-221 401.5,-13 "/>
<path fill="none" stroke="black" d="M401.5,-13C401.5,-7 407.5,-1 413.5,-1"/>
<text text-anchor="middle" x="501" y="-216.4" font-family="Times Roman,serif" font-size="14.00">Tweet</text>
<polyline fill="none" stroke="black" points="401.5,-207 600.5,-207 "/>
<text text-anchor="start" x="409.5" y="-190.4" font-family="Times Roman,serif" font-size="14.00">id :integer</text>
<text text-anchor="start" x="409.5" y="-172.4" font-family="Times Roman,serif" font-size="14.00">user_id :integer</text>
<text text-anchor="start" x="409.5" y="-154.4" font-family="Times Roman,serif" font-size="14.00">text :text</text>
<text text-anchor="start" x="409.5" y="-136.4" font-family="Times Roman,serif" font-size="14.00">truncated_text :text</text>
<text text-anchor="start" x="409.5" y="-118.4" font-family="Times Roman,serif" font-size="14.00">original_tweet_id :string</text>
<text text-anchor="start" x="409.5" y="-100.4" font-family="Times Roman,serif" font-size="14.00">published_tweet_id :string</text>
<text text-anchor="start" x="409.5" y="-82.4" font-family="Times Roman,serif" font-size="14.00">source_language :string</text>
<text text-anchor="start" x="409.5" y="-64.4" font-family="Times Roman,serif" font-size="14.00">target_language :string</text>
<text text-anchor="start" x="409.5" y="-46.4" font-family="Times Roman,serif" font-size="14.00">uuid :string</text>
<text text-anchor="start" x="409.5" y="-28.4" font-family="Times Roman,serif" font-size="14.00">created_at :datetime</text>
<text text-anchor="start" x="409.5" y="-10.4" font-family="Times Roman,serif" font-size="14.00">updated_at :datetime</text>
</g>
<!-- User&#45;&gt;Tweet -->
<g id="edge2" class="edge"><title>User&#45;&gt;Tweet</title>
<path fill="none" stroke="#3a8963" d="M455.385,-263.057C457.512,-256.245 459.625,-249.478 461.709,-242.805"/>
<ellipse fill="none" stroke="#3a8963" cx="454.15" cy="-267.01" rx="4.00001" ry="4.00001"/>
<polygon fill="#3a8963" stroke="#3a8963" points="461.759,-242.645 469.036,-234.442 463.25,-237.873 464.74,-233.1 464.74,-233.1 464.74,-233.1 463.25,-237.873 460.445,-231.759 461.759,-242.645 461.759,-242.645"/>
</g>
</g>
</svg>
